<?xml version="1.0" encoding="utf-8" standalone="no"?>
<!DOCTYPE svg PUBLIC "-//W3C//DTD SVG 1.1//EN"
  "http://www.w3.org/Graphics/SVG/1.1/DTD/svg11.dtd">
<svg xmlns:xlink="http://www.w3.org/1999/xlink" width="460.8pt" height="345.6pt" viewBox="0 0 460.8 345.6" xmlns="http://www.w3.org/2000/svg" version="1.1">
 <metadata>
  <rdf:RDF xmlns:dc="http://purl.org/dc/elements/1.1/" xmlns:cc="http://creativecommons.org/ns#" xmlns:rdf="http://www.w3.org/1999/02/22-rdf-syntax-ns#">
   <cc:Work>
    <dc:type rdf:resource="http://purl.org/dc/dcmitype/StillImage"/>
    <dc:date>2025-02-26T02:06:30.071577</dc:date>
    <dc:format>image/svg+xml</dc:format>
    <dc:creator>
     <cc:Agent>
      <dc:title>Matplotlib v3.10.0, https://matplotlib.org/</dc:title>
     </cc:Agent>
    </dc:creator>
   </cc:Work>
  </rdf:RDF>
 </metadata>
 <defs>
  <style type="text/css">*{stroke-linejoin: round; stroke-linecap: butt}</style>
 </defs>
 <g id="figure_1">
  <g id="patch_1">
   <path d="M 0 345.6 
L 460.8 345.6 
L 460.8 0 
L 0 0 
z
" style="fill: #ffffff"/>
  </g>
  <g id="axes_1">
   <g id="patch_2">
    <path d="M 57.6 250.416 
L 414.72 250.416 
L 414.72 98.64 
L 57.6 98.64 
z
" style="fill: #ffffff"/>
   </g>
   <g id="PathCollection_1">
    <path d="M 161.736 135.2448 
L 167.736 135.2448 
M 164.736 138.2448 
L 164.736 132.2448 
" clip-path="url(#pf011f8ece1)" style="stroke: #000000; stroke-width: 1.5"/>
    <path d="M 172.4496 229.8816 
L 178.4496 229.8816 
M 175.4496 232.8816 
L 175.4496 226.8816 
" clip-path="url(#pf011f8ece1)" style="stroke: #000000; stroke-width: 1.5"/>
    <path d="M 143.88 226.3104 
L 149.88 226.3104 
M 146.88 229.3104 
L 146.88 223.3104 
" clip-path="url(#pf011f8ece1)" style="stroke: #000000; stroke-width: 1.5"/>
    <path d="M 101.0256 151.3152 
L 107.0256 151.3152 
M 104.0256 154.3152 
L 104.0256 148.3152 
" clip-path="url(#pf011f8ece1)" style="stroke: #000000; stroke-width: 1.5"/>
    <path d="M 115.3104 233.4528 
L 121.3104 233.4528 
M 118.3104 236.4528 
L 118.3104 230.4528 
" clip-path="url(#pf011f8ece1)" style="stroke: #000000; stroke-width: 1.5"/>
    <path d="M 361.7232 188.8128 
L 367.7232 188.8128 
M 364.7232 191.8128 
L 364.7232 185.8128 
" clip-path="url(#pf011f8ece1)" style="fill: #ff0000; stroke: #ff0000; stroke-width: 1.5"/>
    <path d="M 367.08 190.5984 
L 373.08 190.5984 
M 370.08 193.5984 
L 370.08 187.5984 
" clip-path="url(#pf011f8ece1)" style="fill: #ff0000; stroke: #ff0000; stroke-width: 1.5"/>
    <path d="M 386.7216 163.8144 
L 392.7216 163.8144 
M 389.7216 166.8144 
L 389.7216 160.8144 
" clip-path="url(#pf011f8ece1)" style="fill: #ff0000; stroke: #ff0000; stroke-width: 1.5"/>
    <path d="M 88.5264 174.528 
L 94.5264 174.528 
M 91.5264 177.528 
L 91.5264 171.528 
" clip-path="url(#pf011f8ece1)" style="stroke: #000000; stroke-width: 1.5"/>
    <path d="M 377.7936 170.9568 
L 383.7936 170.9568 
M 380.7936 173.9568 
L 380.7936 167.9568 
" clip-path="url(#pf011f8ece1)" style="fill: #ff0000; stroke: #ff0000; stroke-width: 1.5"/>
    <path d="M 320.6544 156.672 
L 326.6544 156.672 
M 323.6544 159.672 
L 323.6544 153.672 
" clip-path="url(#pf011f8ece1)" style="stroke: #000000; stroke-width: 1.5"/>
    <path d="M 122.4528 185.2416 
L 128.4528 185.2416 
M 125.4528 188.2416 
L 125.4528 182.2416 
" clip-path="url(#pf011f8ece1)" style="stroke: #000000; stroke-width: 1.5"/>
   </g>
   <g id="PathCollection_2"/>
   <g id="PathCollection_3">
    <defs>
     <path id="C0_0_d16bc3ba30" d="M 0 3 
C 0.795609 3 1.55874 2.683901 2.12132 2.12132 
C 2.683901 1.55874 3 0.795609 3 -0 
C 3 -0.795609 2.683901 -1.55874 2.12132 -2.12132 
C 1.55874 -2.683901 0.795609 -3 0 -3 
C -0.795609 -3 -1.55874 -2.683901 -2.12132 -2.12132 
C -2.683901 -1.55874 -3 -0.795609 -3 0 
C -3 0.795609 -2.683901 1.55874 -2.12132 2.12132 
C -1.55874 2.683901 -0.795609 3 0 3 
z
"/>
    </defs>
    <g clip-path="url(#pf011f8ece1)">
     <use xlink:href="#C0_0_d16bc3ba30" x="184.3776" y="135.2448" style="stroke: #000000"/>
    </g>
    <g clip-path="url(#pf011f8ece1)">
     <use xlink:href="#C0_0_d16bc3ba30" x="136.1664" y="115.6032" style="stroke: #000000"/>
    </g>
    <g clip-path="url(#pf011f8ece1)">
     <use xlink:href="#C0_0_d16bc3ba30" x="82.5984" y="120.96" style="stroke: #000000"/>
    </g>
    <g clip-path="url(#pf011f8ece1)">
     <use xlink:href="#C0_0_d16bc3ba30" x="289.728" y="245.952" style="fill: #ff0000; stroke: #ff0000"/>
    </g>
    <g clip-path="url(#pf011f8ece1)">
     <use xlink:href="#C0_0_d16bc3ba30" x="109.3824" y="185.2416" style="stroke: #000000"/>
    </g>
    <g clip-path="url(#pf011f8ece1)">
     <use xlink:href="#C0_0_d16bc3ba30" x="312.9408" y="153.1008" style="fill: #ff0000; stroke: #ff0000"/>
    </g>
    <g clip-path="url(#pf011f8ece1)">
     <use xlink:href="#C0_0_d16bc3ba30" x="127.2384" y="201.312" style="stroke: #000000"/>
    </g>
    <g clip-path="url(#pf011f8ece1)">
     <use xlink:href="#C0_0_d16bc3ba30" x="132.5952" y="220.9536" style="stroke: #000000"/>
    </g>
    <g clip-path="url(#pf011f8ece1)">
     <use xlink:href="#C0_0_d16bc3ba30" x="100.4544" y="174.528" style="stroke: #000000"/>
    </g>
    <g clip-path="url(#pf011f8ece1)">
     <use xlink:href="#C0_0_d16bc3ba30" x="89.7408" y="172.7424" style="stroke: #000000"/>
    </g>
    <g clip-path="url(#pf011f8ece1)">
     <use xlink:href="#C0_0_d16bc3ba30" x="341.5104" y="215.5968" style="fill: #ff0000; stroke: #ff0000"/>
    </g>
    <g clip-path="url(#pf011f8ece1)">
     <use xlink:href="#C0_0_d16bc3ba30" x="118.3104" y="185.2416" style="stroke: #000000"/>
    </g>
    <g clip-path="url(#pf011f8ece1)">
     <use xlink:href="#C0_0_d16bc3ba30" x="289.728" y="210.24" style="fill: #ff0000; stroke: #ff0000"/>
    </g>
    <g clip-path="url(#pf011f8ece1)">
     <use xlink:href="#C0_0_d16bc3ba30" x="102.24" y="122.7456" style="stroke: #000000"/>
    </g>
    <g clip-path="url(#pf011f8ece1)">
     <use xlink:href="#C0_0_d16bc3ba30" x="127.2384" y="142.3872" style="stroke: #000000"/>
    </g>
    <g clip-path="url(#pf011f8ece1)">
     <use xlink:href="#C0_0_d16bc3ba30" x="387.936" y="213.8112" style="fill: #ff0000; stroke: #ff0000"/>
    </g>
    <g clip-path="url(#pf011f8ece1)">
     <use xlink:href="#C0_0_d16bc3ba30" x="391.5072" y="181.6704" style="fill: #ff0000; stroke: #ff0000"/>
    </g>
    <g clip-path="url(#pf011f8ece1)">
     <use xlink:href="#C0_0_d16bc3ba30" x="364.7232" y="145.9584" style="fill: #ff0000; stroke: #ff0000"/>
    </g>
    <g clip-path="url(#pf011f8ece1)">
     <use xlink:href="#C0_0_d16bc3ba30" x="337.9392" y="213.8112" style="fill: #ff0000; stroke: #ff0000"/>
    </g>
    <g clip-path="url(#pf011f8ece1)">
     <use xlink:href="#C0_0_d16bc3ba30" x="125.4528" y="140.6016" style="stroke: #000000"/>
    </g>
    <g clip-path="url(#pf011f8ece1)">
     <use xlink:href="#C0_0_d16bc3ba30" x="107.5968" y="145.9584" style="stroke: #000000"/>
    </g>
    <g clip-path="url(#pf011f8ece1)">
     <use xlink:href="#C0_0_d16bc3ba30" x="95.0976" y="192.384" style="stroke: #000000"/>
    </g>
    <g clip-path="url(#pf011f8ece1)">
     <use xlink:href="#C0_0_d16bc3ba30" x="318.2976" y="176.3136" style="fill: #ff0000; stroke: #ff0000"/>
    </g>
    <g clip-path="url(#pf011f8ece1)">
     <use xlink:href="#C0_0_d16bc3ba30" x="293.2992" y="115.6032" style="fill: #ff0000; stroke: #ff0000"/>
    </g>
    <g clip-path="url(#pf011f8ece1)">
     <use xlink:href="#C0_0_d16bc3ba30" x="121.8816" y="133.4592" style="stroke: #000000"/>
    </g>
   </g>
   <g id="matplotlib.axis_1">
    <g id="xtick_1">
     <g id="line2d_1">
      <defs>
       <path id="m6d5775b58a" d="M 0 0 
L 0 3.5 
" style="stroke: #000000; stroke-width: 0.8"/>
      </defs>
      <g>
       <use xlink:href="#m6d5775b58a" x="57.6" y="250.416" style="stroke: #000000; stroke-width: 0.8"/>
      </g>
     </g>
     <g id="text_1">
      <!-- −100 -->
      <g transform="translate(43.866406 265.014437) scale(0.1 -0.1)">
       <defs>
        <path id="DejaVuSans-2212" d="M 678 2272 
L 4684 2272 
L 4684 1741 
L 678 1741 
L 678 2272 
z
" transform="scale(0.015625)"/>
        <path id="DejaVuSans-31" d="M 794 531 
L 1825 531 
L 1825 4091 
L 703 3866 
L 703 4441 
L 1819 4666 
L 2450 4666 
L 2450 531 
L 3481 531 
L 3481 0 
L 794 0 
L 794 531 
z
" transform="scale(0.015625)"/>
        <path id="DejaVuSans-30" d="M 2034 4250 
Q 1547 4250 1301 3770 
Q 1056 3291 1056 2328 
Q 1056 1369 1301 889 
Q 1547 409 2034 409 
Q 2525 409 2770 889 
Q 3016 1369 3016 2328 
Q 3016 3291 2770 3770 
Q 2525 4250 2034 4250 
z
M 2034 4750 
Q 2819 4750 3233 4129 
Q 3647 3509 3647 2328 
Q 3647 1150 3233 529 
Q 2819 -91 2034 -91 
Q 1250 -91 836 529 
Q 422 1150 422 2328 
Q 422 3509 836 4129 
Q 1250 4750 2034 4750 
z
" transform="scale(0.015625)"/>
       </defs>
       <use xlink:href="#DejaVuSans-2212"/>
       <use xlink:href="#DejaVuSans-31" transform="translate(83.789062 0)"/>
       <use xlink:href="#DejaVuSans-30" transform="translate(147.412109 0)"/>
       <use xlink:href="#DejaVuSans-30" transform="translate(211.035156 0)"/>
      </g>
     </g>
    </g>
    <g id="xtick_2">
     <g id="line2d_2">
      <g>
       <use xlink:href="#m6d5775b58a" x="102.24" y="250.416" style="stroke: #000000; stroke-width: 0.8"/>
      </g>
     </g>
     <g id="text_2">
      <!-- −75 -->
      <g transform="translate(91.687656 265.014437) scale(0.1 -0.1)">
       <defs>
        <path id="DejaVuSans-37" d="M 525 4666 
L 3525 4666 
L 3525 4397 
L 1831 0 
L 1172 0 
L 2766 4134 
L 525 4134 
L 525 4666 
z
" transform="scale(0.015625)"/>
        <path id="DejaVuSans-35" d="M 691 4666 
L 3169 4666 
L 3169 4134 
L 1269 4134 
L 1269 2991 
Q 1406 3038 1543 3061 
Q 1681 3084 1819 3084 
Q 2600 3084 3056 2656 
Q 3513 2228 3513 1497 
Q 3513 744 3044 326 
Q 2575 -91 1722 -91 
Q 1428 -91 1123 -41 
Q 819 9 494 109 
L 494 744 
Q 775 591 1075 516 
Q 1375 441 1709 441 
Q 2250 441 2565 725 
Q 2881 1009 2881 1497 
Q 2881 1984 2565 2268 
Q 2250 2553 1709 2553 
Q 1456 2553 1204 2497 
Q 953 2441 691 2322 
L 691 4666 
z
" transform="scale(0.015625)"/>
       </defs>
       <use xlink:href="#DejaVuSans-2212"/>
       <use xlink:href="#DejaVuSans-37" transform="translate(83.789062 0)"/>
       <use xlink:href="#DejaVuSans-35" transform="translate(147.412109 0)"/>
      </g>
     </g>
    </g>
    <g id="xtick_3">
     <g id="line2d_3">
      <g>
       <use xlink:href="#m6d5775b58a" x="146.88" y="250.416" style="stroke: #000000; stroke-width: 0.8"/>
      </g>
     </g>
     <g id="text_3">
      <!-- −50 -->
      <g transform="translate(136.327656 265.014437) scale(0.1 -0.1)">
       <use xlink:href="#DejaVuSans-2212"/>
       <use xlink:href="#DejaVuSans-35" transform="translate(83.789062 0)"/>
       <use xlink:href="#DejaVuSans-30" transform="translate(147.412109 0)"/>
      </g>
     </g>
    </g>
    <g id="xtick_4">
     <g id="line2d_4">
      <g>
       <use xlink:href="#m6d5775b58a" x="191.52" y="250.416" style="stroke: #000000; stroke-width: 0.8"/>
      </g>
     </g>
     <g id="text_4">
      <!-- −25 -->
      <g transform="translate(180.967656 265.014437) scale(0.1 -0.1)">
       <defs>
        <path id="DejaVuSans-32" d="M 1228 531 
L 3431 531 
L 3431 0 
L 469 0 
L 469 531 
Q 828 903 1448 1529 
Q 2069 2156 2228 2338 
Q 2531 2678 2651 2914 
Q 2772 3150 2772 3378 
Q 2772 3750 2511 3984 
Q 2250 4219 1831 4219 
Q 1534 4219 1204 4116 
Q 875 4013 500 3803 
L 500 4441 
Q 881 4594 1212 4672 
Q 1544 4750 1819 4750 
Q 2544 4750 2975 4387 
Q 3406 4025 3406 3419 
Q 3406 3131 3298 2873 
Q 3191 2616 2906 2266 
Q 2828 2175 2409 1742 
Q 1991 1309 1228 531 
z
" transform="scale(0.015625)"/>
       </defs>
       <use xlink:href="#DejaVuSans-2212"/>
       <use xlink:href="#DejaVuSans-32" transform="translate(83.789062 0)"/>
       <use xlink:href="#DejaVuSans-35" transform="translate(147.412109 0)"/>
      </g>
     </g>
    </g>
    <g id="xtick_5">
     <g id="line2d_5">
      <g>
       <use xlink:href="#m6d5775b58a" x="236.16" y="250.416" style="stroke: #000000; stroke-width: 0.8"/>
      </g>
     </g>
     <g id="text_5">
      <!-- 0 -->
      <g transform="translate(232.97875 265.014437) scale(0.1 -0.1)">
       <use xlink:href="#DejaVuSans-30"/>
      </g>
     </g>
    </g>
    <g id="xtick_6">
     <g id="line2d_6">
      <g>
       <use xlink:href="#m6d5775b58a" x="280.8" y="250.416" style="stroke: #000000; stroke-width: 0.8"/>
      </g>
     </g>
     <g id="text_6">
      <!-- 25 -->
      <g transform="translate(274.4375 265.014437) scale(0.1 -0.1)">
       <use xlink:href="#DejaVuSans-32"/>
       <use xlink:href="#DejaVuSans-35" transform="translate(63.623047 0)"/>
      </g>
     </g>
    </g>
    <g id="xtick_7">
     <g id="line2d_7">
      <g>
       <use xlink:href="#m6d5775b58a" x="325.44" y="250.416" style="stroke: #000000; stroke-width: 0.8"/>
      </g>
     </g>
     <g id="text_7">
      <!-- 50 -->
      <g transform="translate(319.0775 265.014437) scale(0.1 -0.1)">
       <use xlink:href="#DejaVuSans-35"/>
       <use xlink:href="#DejaVuSans-30" transform="translate(63.623047 0)"/>
      </g>
     </g>
    </g>
    <g id="xtick_8">
     <g id="line2d_8">
      <g>
       <use xlink:href="#m6d5775b58a" x="370.08" y="250.416" style="stroke: #000000; stroke-width: 0.8"/>
      </g>
     </g>
     <g id="text_8">
      <!-- 75 -->
      <g transform="translate(363.7175 265.014437) scale(0.1 -0.1)">
       <use xlink:href="#DejaVuSans-37"/>
       <use xlink:href="#DejaVuSans-35" transform="translate(63.623047 0)"/>
      </g>
     </g>
    </g>
    <g id="xtick_9">
     <g id="line2d_9">
      <g>
       <use xlink:href="#m6d5775b58a" x="414.72" y="250.416" style="stroke: #000000; stroke-width: 0.8"/>
      </g>
     </g>
     <g id="text_9">
      <!-- 100 -->
      <g transform="translate(405.17625 265.014437) scale(0.1 -0.1)">
       <use xlink:href="#DejaVuSans-31"/>
       <use xlink:href="#DejaVuSans-30" transform="translate(63.623047 0)"/>
       <use xlink:href="#DejaVuSans-30" transform="translate(127.246094 0)"/>
      </g>
     </g>
    </g>
   </g>
   <g id="matplotlib.axis_2">
    <g id="ytick_1">
     <g id="line2d_10">
      <defs>
       <path id="m7753b0325b" d="M 0 0 
L -3.5 0 
" style="stroke: #000000; stroke-width: 0.8"/>
      </defs>
      <g>
       <use xlink:href="#m7753b0325b" x="57.6" y="245.952" style="stroke: #000000; stroke-width: 0.8"/>
      </g>
     </g>
     <g id="text_10">
      <!-- −40 -->
      <g transform="translate(29.495313 249.751219) scale(0.1 -0.1)">
       <defs>
        <path id="DejaVuSans-34" d="M 2419 4116 
L 825 1625 
L 2419 1625 
L 2419 4116 
z
M 2253 4666 
L 3047 4666 
L 3047 1625 
L 3713 1625 
L 3713 1100 
L 3047 1100 
L 3047 0 
L 2419 0 
L 2419 1100 
L 313 1100 
L 313 1709 
L 2253 4666 
z
" transform="scale(0.015625)"/>
       </defs>
       <use xlink:href="#DejaVuSans-2212"/>
       <use xlink:href="#DejaVuSans-34" transform="translate(83.789062 0)"/>
       <use xlink:href="#DejaVuSans-30" transform="translate(147.412109 0)"/>
      </g>
     </g>
    </g>
    <g id="ytick_2">
     <g id="line2d_11">
      <g>
       <use xlink:href="#m7753b0325b" x="57.6" y="210.24" style="stroke: #000000; stroke-width: 0.8"/>
      </g>
     </g>
     <g id="text_11">
      <!-- −20 -->
      <g transform="translate(29.495313 214.039219) scale(0.1 -0.1)">
       <use xlink:href="#DejaVuSans-2212"/>
       <use xlink:href="#DejaVuSans-32" transform="translate(83.789062 0)"/>
       <use xlink:href="#DejaVuSans-30" transform="translate(147.412109 0)"/>
      </g>
     </g>
    </g>
    <g id="ytick_3">
     <g id="line2d_12">
      <g>
       <use xlink:href="#m7753b0325b" x="57.6" y="174.528" style="stroke: #000000; stroke-width: 0.8"/>
      </g>
     </g>
     <g id="text_12">
      <!-- 0 -->
      <g transform="translate(44.2375 178.327219) scale(0.1 -0.1)">
       <use xlink:href="#DejaVuSans-30"/>
      </g>
     </g>
    </g>
    <g id="ytick_4">
     <g id="line2d_13">
      <g>
       <use xlink:href="#m7753b0325b" x="57.6" y="138.816" style="stroke: #000000; stroke-width: 0.8"/>
      </g>
     </g>
     <g id="text_13">
      <!-- 20 -->
      <g transform="translate(37.875 142.615219) scale(0.1 -0.1)">
       <use xlink:href="#DejaVuSans-32"/>
       <use xlink:href="#DejaVuSans-30" transform="translate(63.623047 0)"/>
      </g>
     </g>
    </g>
    <g id="ytick_5">
     <g id="line2d_14">
      <g>
       <use xlink:href="#m7753b0325b" x="57.6" y="103.104" style="stroke: #000000; stroke-width: 0.8"/>
      </g>
     </g>
     <g id="text_14">
      <!-- 40 -->
      <g transform="translate(37.875 106.903219) scale(0.1 -0.1)">
       <use xlink:href="#DejaVuSans-34"/>
       <use xlink:href="#DejaVuSans-30" transform="translate(63.623047 0)"/>
      </g>
     </g>
    </g>
   </g>
   <g id="patch_3">
    <path d="M 57.6 250.416 
L 57.6 98.64 
" style="fill: none; stroke: #000000; stroke-width: 0.8; stroke-linejoin: miter; stroke-linecap: square"/>
   </g>
   <g id="patch_4">
    <path d="M 414.72 250.416 
L 414.72 98.64 
" style="fill: none; stroke: #000000; stroke-width: 0.8; stroke-linejoin: miter; stroke-linecap: square"/>
   </g>
   <g id="patch_5">
    <path d="M 57.6 250.416 
L 414.72 250.416 
" style="fill: none; stroke: #000000; stroke-width: 0.8; stroke-linejoin: miter; stroke-linecap: square"/>
   </g>
   <g id="patch_6">
    <path d="M 57.6 98.64 
L 414.72 98.64 
" style="fill: none; stroke: #000000; stroke-width: 0.8; stroke-linejoin: miter; stroke-linecap: square"/>
   </g>
  </g>
 </g>
 <defs>
  <clipPath id="pf011f8ece1">
   <rect x="57.6" y="98.64" width="357.12" height="151.776"/>
  </clipPath>
 </defs>
</svg>
