<?xml version="1.0" encoding="utf-8" standalone="no"?>
<!DOCTYPE svg PUBLIC "-//W3C//DTD SVG 1.1//EN"
  "http://www.w3.org/Graphics/SVG/1.1/DTD/svg11.dtd">
<svg xmlns:xlink="http://www.w3.org/1999/xlink" width="460.8pt" height="345.6pt" viewBox="0 0 460.8 345.6" xmlns="http://www.w3.org/2000/svg" version="1.1">
 <metadata>
  <rdf:RDF xmlns:dc="http://purl.org/dc/elements/1.1/" xmlns:cc="http://creativecommons.org/ns#" xmlns:rdf="http://www.w3.org/1999/02/22-rdf-syntax-ns#">
   <cc:Work>
    <dc:type rdf:resource="http://purl.org/dc/dcmitype/StillImage"/>
    <dc:date>2025-02-26T02:09:37.113778</dc:date>
    <dc:format>image/svg+xml</dc:format>
    <dc:creator>
     <cc:Agent>
      <dc:title>Matplotlib v3.10.0, https://matplotlib.org/</dc:title>
     </cc:Agent>
    </dc:creator>
   </cc:Work>
  </rdf:RDF>
 </metadata>
 <defs>
  <style type="text/css">*{stroke-linejoin: round; stroke-linecap: butt}</style>
 </defs>
 <g id="figure_1">
  <g id="patch_1">
   <path d="M 0 345.6 
L 460.8 345.6 
L 460.8 0 
L 0 0 
z
" style="fill: #ffffff"/>
  </g>
  <g id="axes_1">
   <g id="patch_2">
    <path d="M 57.6 250.416 
L 414.72 250.416 
L 414.72 98.64 
L 57.6 98.64 
z
" style="fill: #ffffff"/>
   </g>
   <g id="PathCollection_1">
    <path d="M 384.936 145.9584 
L 390.936 145.9584 
M 387.936 148.9584 
L 387.936 142.9584 
" clip-path="url(#pc8e0b5758d)" style="stroke: #000000; stroke-width: 1.5"/>
    <path d="M 145.6656 217.3824 
L 151.6656 217.3824 
M 148.6656 220.3824 
L 148.6656 214.3824 
" clip-path="url(#pc8e0b5758d)" style="fill: #ff0000; stroke: #ff0000; stroke-width: 1.5"/>
    <path d="M 349.224 158.4576 
L 355.224 158.4576 
M 352.224 161.4576 
L 352.224 155.4576 
" clip-path="url(#pc8e0b5758d)" style="stroke: #000000; stroke-width: 1.5"/>
    <path d="M 377.7936 183.456 
L 383.7936 183.456 
M 380.7936 186.456 
L 380.7936 180.456 
" clip-path="url(#pc8e0b5758d)" style="stroke: #000000; stroke-width: 1.5"/>
    <path d="M 133.1664 247.7376 
L 139.1664 247.7376 
M 136.1664 250.7376 
L 136.1664 244.7376 
" clip-path="url(#pc8e0b5758d)" style="stroke: #000000; stroke-width: 1.5"/>
    <path d="M 376.008 192.384 
L 382.008 192.384 
M 379.008 195.384 
L 379.008 189.384 
" clip-path="url(#pc8e0b5758d)" style="stroke: #000000; stroke-width: 1.5"/>
    <path d="M 340.296 138.816 
L 346.296 138.816 
M 343.296 141.816 
L 343.296 135.816 
" clip-path="url(#pc8e0b5758d)" style="stroke: #000000; stroke-width: 1.5"/>
   </g>
   <g id="PathCollection_2"/>
   <g id="PathCollection_3">
    <defs>
     <path id="C0_0_9b0f4d0d72" d="M 0 3 
C 0.795609 3 1.55874 2.683901 2.12132 2.12132 
C 2.683901 1.55874 3 0.795609 3 -0 
C 3 -0.795609 2.683901 -1.55874 2.12132 -2.12132 
C 1.55874 -2.683901 0.795609 -3 0 -3 
C -0.795609 -3 -1.55874 -2.683901 -2.12132 -2.12132 
C -2.683901 -1.55874 -3 -0.795609 -3 0 
C -3 0.795609 -2.683901 1.55874 -2.12132 2.12132 
C -1.55874 2.683901 -0.795609 3 0 3 
z
"/>
    </defs>
    <g clip-path="url(#pc8e0b5758d)">
     <use xlink:href="#C0_0_9b0f4d0d72" x="286.1568" y="113.8176" style="stroke: #000000"/>
    </g>
    <g clip-path="url(#pc8e0b5758d)">
     <use xlink:href="#C0_0_9b0f4d0d72" x="334.368" y="131.6736" style="stroke: #000000"/>
    </g>
    <g clip-path="url(#pc8e0b5758d)">
     <use xlink:href="#C0_0_9b0f4d0d72" x="341.5104" y="215.5968" style="stroke: #000000"/>
    </g>
    <g clip-path="url(#pc8e0b5758d)">
     <use xlink:href="#C0_0_9b0f4d0d72" x="352.224" y="140.6016" style="stroke: #000000"/>
    </g>
    <g clip-path="url(#pc8e0b5758d)">
     <use xlink:href="#C0_0_9b0f4d0d72" x="318.2976" y="138.816" style="stroke: #000000"/>
    </g>
    <g clip-path="url(#pc8e0b5758d)">
     <use xlink:href="#C0_0_9b0f4d0d72" x="377.2224" y="170.9568" style="stroke: #000000"/>
    </g>
    <g clip-path="url(#pc8e0b5758d)">
     <use xlink:href="#C0_0_9b0f4d0d72" x="379.008" y="169.1712" style="stroke: #000000"/>
    </g>
    <g clip-path="url(#pc8e0b5758d)">
     <use xlink:href="#C0_0_9b0f4d0d72" x="287.9424" y="220.9536" style="stroke: #000000"/>
    </g>
    <g clip-path="url(#pc8e0b5758d)">
     <use xlink:href="#C0_0_9b0f4d0d72" x="173.664" y="122.7456" style="fill: #ff0000; stroke: #ff0000"/>
    </g>
    <g clip-path="url(#pc8e0b5758d)">
     <use xlink:href="#C0_0_9b0f4d0d72" x="127.2384" y="110.2464" style="fill: #ff0000; stroke: #ff0000"/>
    </g>
    <g clip-path="url(#pc8e0b5758d)">
     <use xlink:href="#C0_0_9b0f4d0d72" x="370.08" y="174.528" style="stroke: #000000"/>
    </g>
    <g clip-path="url(#pc8e0b5758d)">
     <use xlink:href="#C0_0_9b0f4d0d72" x="370.08" y="172.7424" style="stroke: #000000"/>
    </g>
    <g clip-path="url(#pc8e0b5758d)">
     <use xlink:href="#C0_0_9b0f4d0d72" x="364.7232" y="224.5248" style="stroke: #000000"/>
    </g>
    <g clip-path="url(#pc8e0b5758d)">
     <use xlink:href="#C0_0_9b0f4d0d72" x="370.08" y="181.6704" style="stroke: #000000"/>
    </g>
    <g clip-path="url(#pc8e0b5758d)">
     <use xlink:href="#C0_0_9b0f4d0d72" x="154.0224" y="124.5312" style="fill: #ff0000; stroke: #ff0000"/>
    </g>
    <g clip-path="url(#pc8e0b5758d)">
     <use xlink:href="#C0_0_9b0f4d0d72" x="355.7952" y="176.3136" style="stroke: #000000"/>
    </g>
    <g clip-path="url(#pc8e0b5758d)">
     <use xlink:href="#C0_0_9b0f4d0d72" x="350.4384" y="120.96" style="stroke: #000000"/>
    </g>
    <g clip-path="url(#pc8e0b5758d)">
     <use xlink:href="#C0_0_9b0f4d0d72" x="350.4384" y="201.312" style="stroke: #000000"/>
    </g>
    <g clip-path="url(#pc8e0b5758d)">
     <use xlink:href="#C0_0_9b0f4d0d72" x="359.3664" y="135.2448" style="stroke: #000000"/>
    </g>
    <g clip-path="url(#pc8e0b5758d)">
     <use xlink:href="#C0_0_9b0f4d0d72" x="379.008" y="179.8848" style="stroke: #000000"/>
    </g>
    <g clip-path="url(#pc8e0b5758d)">
     <use xlink:href="#C0_0_9b0f4d0d72" x="130.8096" y="165.6" style="fill: #ff0000; stroke: #ff0000"/>
    </g>
    <g clip-path="url(#pc8e0b5758d)">
     <use xlink:href="#C0_0_9b0f4d0d72" x="171.8784" y="144.1728" style="fill: #ff0000; stroke: #ff0000"/>
    </g>
    <g clip-path="url(#pc8e0b5758d)">
     <use xlink:href="#C0_0_9b0f4d0d72" x="123.6672" y="138.816" style="fill: #ff0000; stroke: #ff0000"/>
    </g>
    <g clip-path="url(#pc8e0b5758d)">
     <use xlink:href="#C0_0_9b0f4d0d72" x="370.08" y="113.8176" style="stroke: #000000"/>
    </g>
    <g clip-path="url(#pc8e0b5758d)">
     <use xlink:href="#C0_0_9b0f4d0d72" x="139.7376" y="201.312" style="fill: #ff0000; stroke: #ff0000"/>
    </g>
    <g clip-path="url(#pc8e0b5758d)">
     <use xlink:href="#C0_0_9b0f4d0d72" x="137.952" y="181.6704" style="fill: #ff0000; stroke: #ff0000"/>
    </g>
    <g clip-path="url(#pc8e0b5758d)">
     <use xlink:href="#C0_0_9b0f4d0d72" x="121.8816" y="199.5264" style="fill: #ff0000; stroke: #ff0000"/>
    </g>
    <g clip-path="url(#pc8e0b5758d)">
     <use xlink:href="#C0_0_9b0f4d0d72" x="87.9552" y="172.7424" style="fill: #ff0000; stroke: #ff0000"/>
    </g>
   </g>
   <g id="matplotlib.axis_1">
    <g id="xtick_1">
     <g id="line2d_1">
      <defs>
       <path id="m06a24fda0b" d="M 0 0 
L 0 3.5 
" style="stroke: #000000; stroke-width: 0.8"/>
      </defs>
      <g>
       <use xlink:href="#m06a24fda0b" x="57.6" y="250.416" style="stroke: #000000; stroke-width: 0.8"/>
      </g>
     </g>
     <g id="text_1">
      <!-- −100 -->
      <g transform="translate(43.866406 265.014437) scale(0.1 -0.1)">
       <defs>
        <path id="DejaVuSans-2212" d="M 678 2272 
L 4684 2272 
L 4684 1741 
L 678 1741 
L 678 2272 
z
" transform="scale(0.015625)"/>
        <path id="DejaVuSans-31" d="M 794 531 
L 1825 531 
L 1825 4091 
L 703 3866 
L 703 4441 
L 1819 4666 
L 2450 4666 
L 2450 531 
L 3481 531 
L 3481 0 
L 794 0 
L 794 531 
z
" transform="scale(0.015625)"/>
        <path id="DejaVuSans-30" d="M 2034 4250 
Q 1547 4250 1301 3770 
Q 1056 3291 1056 2328 
Q 1056 1369 1301 889 
Q 1547 409 2034 409 
Q 2525 409 2770 889 
Q 3016 1369 3016 2328 
Q 3016 3291 2770 3770 
Q 2525 4250 2034 4250 
z
M 2034 4750 
Q 2819 4750 3233 4129 
Q 3647 3509 3647 2328 
Q 3647 1150 3233 529 
Q 2819 -91 2034 -91 
Q 1250 -91 836 529 
Q 422 1150 422 2328 
Q 422 3509 836 4129 
Q 1250 4750 2034 4750 
z
" transform="scale(0.015625)"/>
       </defs>
       <use xlink:href="#DejaVuSans-2212"/>
       <use xlink:href="#DejaVuSans-31" transform="translate(83.789062 0)"/>
       <use xlink:href="#DejaVuSans-30" transform="translate(147.412109 0)"/>
       <use xlink:href="#DejaVuSans-30" transform="translate(211.035156 0)"/>
      </g>
     </g>
    </g>
    <g id="xtick_2">
     <g id="line2d_2">
      <g>
       <use xlink:href="#m06a24fda0b" x="102.24" y="250.416" style="stroke: #000000; stroke-width: 0.8"/>
      </g>
     </g>
     <g id="text_2">
      <!-- −75 -->
      <g transform="translate(91.687656 265.014437) scale(0.1 -0.1)">
       <defs>
        <path id="DejaVuSans-37" d="M 525 4666 
L 3525 4666 
L 3525 4397 
L 1831 0 
L 1172 0 
L 2766 4134 
L 525 4134 
L 525 4666 
z
" transform="scale(0.015625)"/>
        <path id="DejaVuSans-35" d="M 691 4666 
L 3169 4666 
L 3169 4134 
L 1269 4134 
L 1269 2991 
Q 1406 3038 1543 3061 
Q 1681 3084 1819 3084 
Q 2600 3084 3056 2656 
Q 3513 2228 3513 1497 
Q 3513 744 3044 326 
Q 2575 -91 1722 -91 
Q 1428 -91 1123 -41 
Q 819 9 494 109 
L 494 744 
Q 775 591 1075 516 
Q 1375 441 1709 441 
Q 2250 441 2565 725 
Q 2881 1009 2881 1497 
Q 2881 1984 2565 2268 
Q 2250 2553 1709 2553 
Q 1456 2553 1204 2497 
Q 953 2441 691 2322 
L 691 4666 
z
" transform="scale(0.015625)"/>
       </defs>
       <use xlink:href="#DejaVuSans-2212"/>
       <use xlink:href="#DejaVuSans-37" transform="translate(83.789062 0)"/>
       <use xlink:href="#DejaVuSans-35" transform="translate(147.412109 0)"/>
      </g>
     </g>
    </g>
    <g id="xtick_3">
     <g id="line2d_3">
      <g>
       <use xlink:href="#m06a24fda0b" x="146.88" y="250.416" style="stroke: #000000; stroke-width: 0.8"/>
      </g>
     </g>
     <g id="text_3">
      <!-- −50 -->
      <g transform="translate(136.327656 265.014437) scale(0.1 -0.1)">
       <use xlink:href="#DejaVuSans-2212"/>
       <use xlink:href="#DejaVuSans-35" transform="translate(83.789062 0)"/>
       <use xlink:href="#DejaVuSans-30" transform="translate(147.412109 0)"/>
      </g>
     </g>
    </g>
    <g id="xtick_4">
     <g id="line2d_4">
      <g>
       <use xlink:href="#m06a24fda0b" x="191.52" y="250.416" style="stroke: #000000; stroke-width: 0.8"/>
      </g>
     </g>
     <g id="text_4">
      <!-- −25 -->
      <g transform="translate(180.967656 265.014437) scale(0.1 -0.1)">
       <defs>
        <path id="DejaVuSans-32" d="M 1228 531 
L 3431 531 
L 3431 0 
L 469 0 
L 469 531 
Q 828 903 1448 1529 
Q 2069 2156 2228 2338 
Q 2531 2678 2651 2914 
Q 2772 3150 2772 3378 
Q 2772 3750 2511 3984 
Q 2250 4219 1831 4219 
Q 1534 4219 1204 4116 
Q 875 4013 500 3803 
L 500 4441 
Q 881 4594 1212 4672 
Q 1544 4750 1819 4750 
Q 2544 4750 2975 4387 
Q 3406 4025 3406 3419 
Q 3406 3131 3298 2873 
Q 3191 2616 2906 2266 
Q 2828 2175 2409 1742 
Q 1991 1309 1228 531 
z
" transform="scale(0.015625)"/>
       </defs>
       <use xlink:href="#DejaVuSans-2212"/>
       <use xlink:href="#DejaVuSans-32" transform="translate(83.789062 0)"/>
       <use xlink:href="#DejaVuSans-35" transform="translate(147.412109 0)"/>
      </g>
     </g>
    </g>
    <g id="xtick_5">
     <g id="line2d_5">
      <g>
       <use xlink:href="#m06a24fda0b" x="236.16" y="250.416" style="stroke: #000000; stroke-width: 0.8"/>
      </g>
     </g>
     <g id="text_5">
      <!-- 0 -->
      <g transform="translate(232.97875 265.014437) scale(0.1 -0.1)">
       <use xlink:href="#DejaVuSans-30"/>
      </g>
     </g>
    </g>
    <g id="xtick_6">
     <g id="line2d_6">
      <g>
       <use xlink:href="#m06a24fda0b" x="280.8" y="250.416" style="stroke: #000000; stroke-width: 0.8"/>
      </g>
     </g>
     <g id="text_6">
      <!-- 25 -->
      <g transform="translate(274.4375 265.014437) scale(0.1 -0.1)">
       <use xlink:href="#DejaVuSans-32"/>
       <use xlink:href="#DejaVuSans-35" transform="translate(63.623047 0)"/>
      </g>
     </g>
    </g>
    <g id="xtick_7">
     <g id="line2d_7">
      <g>
       <use xlink:href="#m06a24fda0b" x="325.44" y="250.416" style="stroke: #000000; stroke-width: 0.8"/>
      </g>
     </g>
     <g id="text_7">
      <!-- 50 -->
      <g transform="translate(319.0775 265.014437) scale(0.1 -0.1)">
       <use xlink:href="#DejaVuSans-35"/>
       <use xlink:href="#DejaVuSans-30" transform="translate(63.623047 0)"/>
      </g>
     </g>
    </g>
    <g id="xtick_8">
     <g id="line2d_8">
      <g>
       <use xlink:href="#m06a24fda0b" x="370.08" y="250.416" style="stroke: #000000; stroke-width: 0.8"/>
      </g>
     </g>
     <g id="text_8">
      <!-- 75 -->
      <g transform="translate(363.7175 265.014437) scale(0.1 -0.1)">
       <use xlink:href="#DejaVuSans-37"/>
       <use xlink:href="#DejaVuSans-35" transform="translate(63.623047 0)"/>
      </g>
     </g>
    </g>
    <g id="xtick_9">
     <g id="line2d_9">
      <g>
       <use xlink:href="#m06a24fda0b" x="414.72" y="250.416" style="stroke: #000000; stroke-width: 0.8"/>
      </g>
     </g>
     <g id="text_9">
      <!-- 100 -->
      <g transform="translate(405.17625 265.014437) scale(0.1 -0.1)">
       <use xlink:href="#DejaVuSans-31"/>
       <use xlink:href="#DejaVuSans-30" transform="translate(63.623047 0)"/>
       <use xlink:href="#DejaVuSans-30" transform="translate(127.246094 0)"/>
      </g>
     </g>
    </g>
   </g>
   <g id="matplotlib.axis_2">
    <g id="ytick_1">
     <g id="line2d_10">
      <defs>
       <path id="m7d72197b51" d="M 0 0 
L -3.5 0 
" style="stroke: #000000; stroke-width: 0.8"/>
      </defs>
      <g>
       <use xlink:href="#m7d72197b51" x="57.6" y="245.952" style="stroke: #000000; stroke-width: 0.8"/>
      </g>
     </g>
     <g id="text_10">
      <!-- −40 -->
      <g transform="translate(29.495313 249.751219) scale(0.1 -0.1)">
       <defs>
        <path id="DejaVuSans-34" d="M 2419 4116 
L 825 1625 
L 2419 1625 
L 2419 4116 
z
M 2253 4666 
L 3047 4666 
L 3047 1625 
L 3713 1625 
L 3713 1100 
L 3047 1100 
L 3047 0 
L 2419 0 
L 2419 1100 
L 313 1100 
L 313 1709 
L 2253 4666 
z
" transform="scale(0.015625)"/>
       </defs>
       <use xlink:href="#DejaVuSans-2212"/>
       <use xlink:href="#DejaVuSans-34" transform="translate(83.789062 0)"/>
       <use xlink:href="#DejaVuSans-30" transform="translate(147.412109 0)"/>
      </g>
     </g>
    </g>
    <g id="ytick_2">
     <g id="line2d_11">
      <g>
       <use xlink:href="#m7d72197b51" x="57.6" y="210.24" style="stroke: #000000; stroke-width: 0.8"/>
      </g>
     </g>
     <g id="text_11">
      <!-- −20 -->
      <g transform="translate(29.495313 214.039219) scale(0.1 -0.1)">
       <use xlink:href="#DejaVuSans-2212"/>
       <use xlink:href="#DejaVuSans-32" transform="translate(83.789062 0)"/>
       <use xlink:href="#DejaVuSans-30" transform="translate(147.412109 0)"/>
      </g>
     </g>
    </g>
    <g id="ytick_3">
     <g id="line2d_12">
      <g>
       <use xlink:href="#m7d72197b51" x="57.6" y="174.528" style="stroke: #000000; stroke-width: 0.8"/>
      </g>
     </g>
     <g id="text_12">
      <!-- 0 -->
      <g transform="translate(44.2375 178.327219) scale(0.1 -0.1)">
       <use xlink:href="#DejaVuSans-30"/>
      </g>
     </g>
    </g>
    <g id="ytick_4">
     <g id="line2d_13">
      <g>
       <use xlink:href="#m7d72197b51" x="57.6" y="138.816" style="stroke: #000000; stroke-width: 0.8"/>
      </g>
     </g>
     <g id="text_13">
      <!-- 20 -->
      <g transform="translate(37.875 142.615219) scale(0.1 -0.1)">
       <use xlink:href="#DejaVuSans-32"/>
       <use xlink:href="#DejaVuSans-30" transform="translate(63.623047 0)"/>
      </g>
     </g>
    </g>
    <g id="ytick_5">
     <g id="line2d_14">
      <g>
       <use xlink:href="#m7d72197b51" x="57.6" y="103.104" style="stroke: #000000; stroke-width: 0.8"/>
      </g>
     </g>
     <g id="text_14">
      <!-- 40 -->
      <g transform="translate(37.875 106.903219) scale(0.1 -0.1)">
       <use xlink:href="#DejaVuSans-34"/>
       <use xlink:href="#DejaVuSans-30" transform="translate(63.623047 0)"/>
      </g>
     </g>
    </g>
   </g>
   <g id="patch_3">
    <path d="M 57.6 250.416 
L 57.6 98.64 
" style="fill: none; stroke: #000000; stroke-width: 0.8; stroke-linejoin: miter; stroke-linecap: square"/>
   </g>
   <g id="patch_4">
    <path d="M 414.72 250.416 
L 414.72 98.64 
" style="fill: none; stroke: #000000; stroke-width: 0.8; stroke-linejoin: miter; stroke-linecap: square"/>
   </g>
   <g id="patch_5">
    <path d="M 57.6 250.416 
L 414.72 250.416 
" style="fill: none; stroke: #000000; stroke-width: 0.8; stroke-linejoin: miter; stroke-linecap: square"/>
   </g>
   <g id="patch_6">
    <path d="M 57.6 98.64 
L 414.72 98.64 
" style="fill: none; stroke: #000000; stroke-width: 0.8; stroke-linejoin: miter; stroke-linecap: square"/>
   </g>
  </g>
 </g>
 <defs>
  <clipPath id="pc8e0b5758d">
   <rect x="57.6" y="98.64" width="357.12" height="151.776"/>
  </clipPath>
 </defs>
</svg>
